<svg xmlns="http://www.w3.org/2000/svg" width="31.59" height="31.59" viewBox="0 0 31.59 31.59">
  <path id="cross" d="M36.562,6.442h0a2.51,2.51,0,0,0-3.549,0L21.5,17.953,9.991,6.442a2.51,2.51,0,0,0-3.549,0h0a2.51,2.51,0,0,0,0,3.549L17.953,21.5,6.442,33.013a2.51,2.51,0,0,0,0,3.549h0a2.51,2.51,0,0,0,3.549,0L21.5,25.051,33.013,36.562a2.51,2.51,0,0,0,3.549,0h0a2.51,2.51,0,0,0,0-3.549L25.051,21.5,36.562,9.991A2.51,2.51,0,0,0,36.562,6.442Z" transform="translate(-5.707 -5.707)" fill="#ef3829"/>
</svg>
