<svg xmlns="http://www.w3.org/2000/svg" width="66.26" height="71.444" viewBox="0 0 66.26 71.444">
  <path id="flame_3916992" d="M48.214,8.633c-2.224-1.887-4.555-3.87-6.927-6.025A9.984,9.984,0,0,0,33.2.092a9.716,9.716,0,0,0-6.939,4.421h0a55.691,55.691,0,0,0-6.329,14.944,7.317,7.317,0,0,0-11.3-.485A27.265,27.265,0,0,0,.87,38.3a32.817,32.817,0,0,0,24.6,32.073,34.731,34.731,0,0,0,8.5,1.072,33.108,33.108,0,0,0,33.153-33.12C67.129,24.708,58.365,17.266,48.214,8.633Zm.649,48.779A23.737,23.737,0,0,1,46.183,59.2a13.354,13.354,0,0,0,1.31-5.713c0-5.736-4-12.4-8.931-18.233a6.028,6.028,0,0,0-9.166,0c-7,8.21-11.386,17.087-7.3,24.285A24.112,24.112,0,0,1,9.806,38.321a17.715,17.715,0,0,1,4-11.61q.631,1.036,1.354,2a6.847,6.847,0,0,0,7.07,2.59,7.037,7.037,0,0,0,5.358-5.436A51.365,51.365,0,0,1,33.818,9.3a.771.771,0,0,1,.58-.366,1.092,1.092,0,0,1,.878.277c2.453,2.23,4.861,4.278,7.159,6.225,9.493,8.061,15.762,13.4,15.762,22.88a24.056,24.056,0,0,1-9.335,19.105Z" transform="translate(-0.869 0)" fill="#ff3120"/>
</svg>
