<svg xmlns="http://www.w3.org/2000/svg" width="65.306" height="71.768" viewBox="0 0 65.306 71.768">
  <path id="medal_12616993" d="M56.107,20.669A32.786,32.786,0,0,0,36.822,12.1L42.809,0H66.334ZM30.835,12.1,24.867,0H1.028l10.3,20.887A32.791,32.791,0,0,1,30.835,12.1ZM60.751,44.855A26.913,26.913,0,1,1,33.838,17.942,26.944,26.944,0,0,1,60.751,44.855ZM48.789,40.369H38.078L35.1,29.819H32.642L29.66,40.369H18.889V42.6l8.08,4.719-3.212,9.494,1.827,1.376,8.292-6.414,8.259,6.387,1.9-1.325-3.451-9.375,8.205-4.874V40.372Z" transform="translate(-1.028)" fill="#ff3120"/>
</svg>
