<svg xmlns="http://www.w3.org/2000/svg" width="66.756" height="66.758" viewBox="0 0 66.756 66.758">
  <path id="utensils_5074696" d="M27.815,0h8.344V26.426a9.735,9.735,0,0,1-9.735,9.735H22.252v30.6H13.907v-30.6H9.735A9.735,9.735,0,0,1,0,26.426V0H8.344V26.426a1.391,1.391,0,0,0,1.391,1.391h4.172V0h8.344V27.817h4.172a1.391,1.391,0,0,0,1.391-1.391ZM66.756,27.168c0,13.521-10.214,25.59-13.907,29.517V66.757H44.5V6.955A6.954,6.954,0,0,1,57.051,2.822C61.471,8.761,66.756,17.8,66.756,27.168Zm-13.907,16a26.049,26.049,0,0,0,0-31.767Z" transform="translate(0 0.001)" fill="#ff3120"/>
</svg>
