<?xml version="1.0" encoding="utf-8"?>
<svg width="247.81375px" height="247.82037px" viewBox="0 0 247.81375 247.82037" version="1.1" xmlns:xlink="http://www.w3.org/1999/xlink" xmlns="http://www.w3.org/2000/svg">
  <path d="M228.477 62.8258C240.154 51.1491 245.434 27.6924 247.697 12.5231C248.201 9.09509 247.051 5.6311 244.595 3.18616C242.14 0.741211 238.672 -0.395142 235.246 0.123108C199.678 5.93042 171.84 14.5898 175.622 57.6384L162.344 70.8651C171.169 51.8724 157.425 25.5431 147.144 13.8458C145.197 11.5967 142.368 10.3043 139.394 10.3043C136.419 10.3043 133.591 11.5967 131.644 13.8458C121.164 25.8475 114.817 40.8987 113.54 56.7808C114.711 72.8866 123.362 87.5126 136.914 96.2954L110.677 122.532C119.502 103.539 105.759 77.2098 95.477 65.5124C93.5299 63.2633 90.7018 61.9709 87.727 61.9709C84.7521 61.9709 81.924 63.2633 79.977 65.5124C69.497 77.5141 63.1504 92.5654 61.873 108.447C63.0441 124.553 71.6958 139.179 85.247 147.962L59.0107 174.198C67.8353 155.206 54.092 128.876 43.8103 117.179C41.8632 114.93 39.0351 113.638 36.0603 113.638C33.0855 113.638 30.2574 114.93 28.3103 117.179C17.8303 129.181 11.4838 144.232 10.2063 160.114C11.3774 176.22 20.0291 190.846 33.5803 199.629L2.90063 230.308C-1.01535 234.363 -0.95932 240.808 3.02658 244.794C7.01245 248.78 13.4574 248.836 17.512 244.92L48.1917 214.24C56.9744 227.791 71.6005 236.443 87.7063 237.614C103.583 236.348 118.634 230.016 130.641 219.551C132.89 217.604 134.183 214.776 134.183 211.801C134.183 208.827 132.89 205.999 130.641 204.051C118.944 193.718 92.625 180.026 73.6219 188.851L99.8583 162.615C108.65 176.15 123.275 184.786 139.373 185.947C155.25 184.682 170.301 178.35 182.308 167.885C184.557 165.938 185.849 163.11 185.849 160.135C185.849 157.16 184.557 154.332 182.308 152.385C170.611 142.103 144.292 128.36 125.289 137.184L151.525 110.948C160.317 124.484 174.941 133.119 191.04 134.281C206.917 133.015 221.968 126.683 233.975 116.218C236.224 114.271 237.516 111.443 237.516 108.468C237.516 105.493 236.224 102.665 233.975 100.718C222.277 90.4365 195.958 76.6931 176.955 85.5178L190.244 72.2291C202.406 72.6321 219.787 71.5161 228.477 62.8258L228.477 62.8258Z" id="Shape" fill="#24D50D" stroke="none" />
</svg>